/* XPM */
static char *_3ce4de0ea6842fb9c6f2756a6326f04lBuFHsOETApU0Ikz[] = {
/* columns rows colors chars-per-pixel */
"10 10 12 1 ",
"  c white",
". c #FEEFEF",
"X c #FE7979",
"o c #FE1212",
"O c red",
"+ c #FFF3F3",
"@ c #FE6868",
"# c #FF0202",
"$ c #FE9292",
"% c #FF0606",
"& c #FE3030",
"* c #FE0808",
/* pixels */
" .XoOOoX. ",
"+@#OOOO#@+",
"$%OOOOOO%$",
"&OOOOOOOO&",
"*OOOOOOOO*",
"*OOOOOOOO*",
"&OOOOOOOO&",
"$%OOOOOO%$",
"+@#OOOO#@+",
" .XoOOoX. "
};
